<?xml version="1.0" encoding="utf-8"?><svg viewBox="0 0 24 24" xmlns="http://www.w3.org/2000/svg" xmlns:xlink="http://www.w3.org/1999/xlink"><style>:root>svg{display:none}:root>svg:target{display:block}</style><svg viewBox="0 0 24 24" id="be" xmlns="http://www.w3.org/2000/svg"><g clip-path="url(#aa)"><path d="M12.365 15.144c0-1.972-.879-3.429-2.695-3.975 1.325-.673 2.016-1.693 2.016-3.279C11.686 4.763 9.494 4 6.964 4H0v15.703h7.16c2.684 0 5.205-1.369 5.205-4.56zM3.247 6.68h3.046c1.171 0 2.226.35 2.226 1.794 0 1.333-.82 1.87-1.98 1.87H3.246V6.68zm-.001 10.355v-4.324h3.538c1.43 0 2.334.633 2.334 2.242 0 1.586-1.08 2.082-2.4 2.082H3.245zM18.8 20c2.554 0 4.208-1.224 5.004-3.824h-2.592c-.28.97-1.43 1.484-2.322 1.484-1.721 0-2.625-1.072-2.625-2.894h7.714c.244-3.646-1.66-6.753-5.18-6.753-3.26 0-5.473 2.604-5.473 6.017 0 3.541 2.097 5.97 5.473 5.97zm-.093-9.628c1.476 0 2.218.922 2.342 2.429h-4.78c.097-1.495 1.03-2.429 2.438-2.429zM15.67 4.825h5.99v1.547h-5.99V4.825z"/></g><defs><clipPath id="aa"><path d="M0 0h24v24H0z"/></clipPath></defs></svg><svg viewBox="0 0 16 16" id="chat" xmlns="http://www.w3.org/2000/svg"><path fill-rule="evenodd" clip-rule="evenodd" d="M14.615 7.046a5.166 5.166 0 01-.653 1.858c.025.142.038.286.038.43 0 .502-.146.982-.415 1.419-.135.218-.17.473-.183.642a4.25 4.25 0 00.004.607c.016.228.044.468.076.693a13.78 13.78 0 00-.812-.212 5.819 5.819 0 00-.66-.115c-.181-.019-.443-.034-.676.042a5.425 5.425 0 01-1.668.258 5.365 5.365 0 01-1.92-.343 8.824 8.824 0 01-2.712-.291C6.085 13.248 7.818 14 9.666 14a6.76 6.76 0 002.054-.315h.006c.016 0 .062 0 .147.008.134.014.306.044.504.09.395.088.839.22 1.184.33a1.024 1.024 0 001.313-1.152c-.056-.32-.115-.711-.138-1.05a2.96 2.96 0 01-.004-.413.783.783 0 01.01-.083 4.009 4.009 0 00.591-2.082c0-.849-.264-1.624-.718-2.288z"/><path fill-rule="evenodd" clip-rule="evenodd" d="M3.731 3.8c-.899.687-1.398 1.589-1.398 2.534 0 .471.123.925.353 1.347.088.161.113.327.121.44.01.122.005.248-.005.365a5.847 5.847 0 01-.134.766 14.5 14.5 0 01-.255.943c.352-.128.737-.259 1.102-.365.295-.086.593-.161.858-.203.228-.036.56-.072.845.027a6.48 6.48 0 002.115.347c1.432 0 2.703-.445 3.602-1.132.899-.688 1.398-1.59 1.398-2.535 0-.945-.5-1.847-1.398-2.535-.9-.687-2.17-1.132-3.602-1.132-1.431 0-2.703.445-3.602 1.132zm-.81-1.06c1.152-.88 2.714-1.406 4.412-1.406s3.26.526 4.412 1.406c1.152.881 1.921 2.146 1.921 3.594s-.769 2.713-1.921 3.594c-1.152.88-2.714 1.406-4.412 1.406-.895 0-1.75-.146-2.527-.412 0 .003-.064-.004-.225.022-.186.03-.423.087-.693.165a20.59 20.59 0 00-1.599.558c-.796.31-1.606-.455-1.338-1.27.142-.43.31-.976.419-1.447.055-.237.09-.436.104-.584a1.16 1.16 0 00.005-.114A4.117 4.117 0 011 6.334c0-1.448.77-2.713 1.922-3.594z"/></svg><svg viewBox="0 0 20 20" id="fb" xmlns="http://www.w3.org/2000/svg"><path d="M14.636.838L12.322.834c-2.6 0-4.281 1.77-4.281 4.512v2.08H5.714a.369.369 0 00-.364.374v3.014c0 .207.163.374.364.374h2.327v7.606c0 .206.163.373.364.373h3.036a.369.369 0 00.364-.373v-7.606h2.72a.369.369 0 00.365-.374V7.8a.38.38 0 00-.106-.264.36.36 0 00-.257-.11h-2.722V5.663c0-.848.197-1.278 1.271-1.278h1.56a.37.37 0 00.363-.375V1.212a.37.37 0 00-.363-.374z"/></svg><svg viewBox="0 0 24 24" id="fb-gray" xmlns="http://www.w3.org/2000/svg"><path d="M17.563 1.005L14.786 1c-3.12 0-5.137 2.125-5.137 5.414v2.497H6.857c-.242 0-.437.2-.437.448v3.617c0 .248.196.449.437.449h2.792v9.126c0 .248.195.449.437.449h3.643a.443.443 0 00.437-.449v-9.126h3.265c.241 0 .436-.2.436-.449l.002-3.617a.456.456 0 00-.128-.317.431.431 0 00-.31-.131h-3.265V6.794c0-1.017.236-1.533 1.525-1.533h1.871a.444.444 0 00.437-.45V1.454a.443.443 0 00-.436-.448z"/></svg><svg viewBox="0 0 16 16" id="files" xmlns="http://www.w3.org/2000/svg"><path fill-rule="evenodd" clip-rule="evenodd" d="M5.333 9c0-.369.299-.667.667-.667h4a.667.667 0 110 1.333H6A.667.667 0 015.333 9zm0 2.5c0-.368.299-.667.667-.667h2a.667.667 0 010 1.333H6a.667.667 0 01-.667-.666z"/><path fill-rule="evenodd" clip-rule="evenodd" d="M6.029 1.028A.667.667 0 016.5.833H11A2.667 2.667 0 0113.667 3.5v9A2.667 2.667 0 0111 15.166H5A2.667 2.667 0 012.333 12.5V5c0-.177.07-.347.196-.472l3.5-3.5zm.304 1.581v2.224H4.11l2.223-2.224zM3.667 6.166V12.5c0 .736.597 1.333 1.333 1.333h6c.737 0 1.334-.597 1.334-1.333v-9c0-.737-.597-1.334-1.334-1.334H7.667V5.5A.667.667 0 017 6.166H3.667z"/></svg><svg viewBox="0 0 20 20" id="gg" xmlns="http://www.w3.org/2000/svg"><path d="M10.176 8.752h8.23c.09.507.135.992.135 1.453 0 1.642-.344 3.108-1.033 4.399a7.458 7.458 0 01-2.945 3.025c-1.275.726-2.738 1.09-4.387 1.09a8.57 8.57 0 01-3.394-.687A8.718 8.718 0 014 16.176a8.719 8.719 0 01-1.856-2.781A8.57 8.57 0 011.458 10c0-1.188.229-2.32.687-3.394A8.717 8.717 0 014 3.826 8.718 8.718 0 016.78 1.97a8.57 8.57 0 013.395-.687c2.27 0 4.218.76 5.845 2.282l-2.37 2.281c-.93-.9-2.089-1.35-3.473-1.35-.977 0-1.879.245-2.708.737A5.437 5.437 0 005.5 7.237 5.456 5.456 0 004.773 10c0 .999.242 1.92.726 2.764a5.437 5.437 0 001.97 2.003 5.21 5.21 0 002.707.738c.658 0 1.263-.09 1.816-.272.552-.182 1.006-.409 1.362-.681a4.91 4.91 0 00.93-.931c.266-.348.46-.678.585-.988.125-.31.21-.605.256-.885h-4.95V8.752z"/></svg><svg viewBox="0 0 20 20" id="grid" xmlns="http://www.w3.org/2000/svg"><path fill-rule="evenodd" clip-rule="evenodd" d="M.833 2.916c0-1.15.933-2.083 2.084-2.083h4.166c1.15 0 2.084.933 2.084 2.083v4.167c0 1.15-.933 2.083-2.084 2.083H2.917A2.083 2.083 0 01.833 7.083V2.916zM2.917 2.5a.417.417 0 00-.417.416v4.167c0 .23.187.417.417.417h4.166c.23 0 .417-.187.417-.417V2.916a.417.417 0 00-.417-.416H2.917zM.833 12.916c0-1.15.933-2.083 2.084-2.083h4.166c1.15 0 2.084.933 2.084 2.083v4.167c0 1.15-.933 2.083-2.084 2.083H2.917a2.083 2.083 0 01-2.084-2.083v-4.167zm2.084-.416a.417.417 0 00-.417.416v4.167c0 .23.187.417.417.417h4.166c.23 0 .417-.187.417-.417v-4.167a.417.417 0 00-.417-.416H2.917zm7.916-9.584c0-1.15.933-2.083 2.084-2.083h4.166c1.15 0 2.084.933 2.084 2.083v4.167c0 1.15-.933 2.083-2.084 2.083h-4.166a2.083 2.083 0 01-2.084-2.083V2.916zm2.084-.416a.417.417 0 00-.417.416v4.167c0 .23.187.417.417.417h4.166c.23 0 .417-.187.417-.417V2.916a.417.417 0 00-.417-.416h-4.166zm-2.084 10.416c0-1.15.933-2.083 2.084-2.083h4.166c1.15 0 2.084.933 2.084 2.083v4.167c0 1.15-.933 2.083-2.084 2.083h-4.166a2.083 2.083 0 01-2.084-2.083v-4.167zm2.084-.416a.417.417 0 00-.417.416v4.167c0 .23.187.417.417.417h4.166c.23 0 .417-.187.417-.417v-4.167a.417.417 0 00-.417-.416h-4.166z"/></svg><svg viewBox="0 0 20 20" id="in" xmlns="http://www.w3.org/2000/svg"><path d="M18.329 18.333l.004-.001v-6.113c0-2.99-.644-5.293-4.14-5.293-1.68 0-2.808.922-3.268 1.796h-.049V7.205H7.562v11.127h3.451v-5.51c0-1.45.275-2.853 2.072-2.853 1.77 0 1.796 1.655 1.796 2.946v5.418h3.448zM1.942 7.206h3.455v11.127H1.941V7.206zm1.726-5.54a2.002 2.002 0 00-2.002 2.001c0 1.105.897 2.02 2.002 2.02 1.105 0 2.001-.915 2.001-2.02a2.003 2.003 0 00-2.001-2.001z"/></svg><svg viewBox="0 0 20 20" id="inst" xmlns="http://www.w3.org/2000/svg"><path d="M18.317 6.566c-.04-.885-.182-1.494-.387-2.022a4.068 4.068 0 00-.964-1.478 4.102 4.102 0 00-1.475-.96c-.53-.206-1.136-.349-2.022-.388-.892-.042-1.175-.052-3.438-.052s-2.546.01-3.435.049c-.886.039-1.495.182-2.022.387a4.066 4.066 0 00-1.478.964 4.103 4.103 0 00-.96 1.475c-.206.53-.349 1.136-.388 2.022-.042.892-.052 1.175-.052 3.438s.01 2.546.049 3.435c.039.886.182 1.494.387 2.022.212.56.54 1.061.964 1.478.417.423.921.752 1.475.96.53.206 1.136.349 2.022.388.888.039 1.172.049 3.435.049 2.262 0 2.546-.01 3.434-.05.886-.038 1.495-.181 2.022-.387a4.263 4.263 0 002.439-2.438c.205-.53.348-1.136.387-2.022.04-.889.05-1.172.05-3.435s-.004-2.546-.043-3.435zm-1.501 6.805c-.036.814-.173 1.253-.287 1.546a2.765 2.765 0 01-1.582 1.583c-.293.114-.736.25-1.546.286-.88.04-1.143.049-3.367.049s-2.49-.01-3.367-.049c-.814-.036-1.253-.172-1.546-.286a2.566 2.566 0 01-.957-.622 2.592 2.592 0 01-.622-.957c-.114-.293-.25-.736-.287-1.547-.039-.879-.048-1.143-.048-3.367 0-2.223.01-2.49.048-3.366.036-.814.173-1.254.287-1.547.133-.361.345-.69.625-.957.27-.277.596-.488.957-.622.293-.114.736-.25 1.547-.286.879-.04 1.143-.049 3.366-.049 2.227 0 2.491.01 3.367.049.814.036 1.253.172 1.546.286.362.134.69.345.958.622.276.27.488.596.621.957.114.293.251.736.287 1.547.039.88.049 1.143.049 3.367 0 2.223-.01 2.484-.049 3.363z"/><path d="M10.03 5.72a4.283 4.283 0 000 8.562 4.282 4.282 0 000-8.562zm0 7.058a2.778 2.778 0 11.002-5.555 2.778 2.778 0 01-.001 5.555zm5.451-7.228a1 1 0 11-2 0 1 1 0 012 0z"/></svg><svg viewBox="0 0 16 16" id="layouts" xmlns="http://www.w3.org/2000/svg"><path fill-rule="evenodd" clip-rule="evenodd" d="M7.702.736a.667.667 0 01.596 0l6.667 3.334a.667.667 0 010 1.192L8.298 8.596a.667.667 0 01-.596 0L1.035 5.262a.667.667 0 010-1.192L7.702.736zm-4.878 3.93L8 7.254l5.176-2.588L8 2.078 2.824 4.666z"/><path fill-rule="evenodd" clip-rule="evenodd" d="M.737 7.701a.667.667 0 01.894-.298L8 10.587l6.368-3.184a.667.667 0 11.597 1.193l-6.667 3.333a.667.667 0 01-.596 0L1.035 8.596A.667.667 0 01.737 7.7z"/><path fill-rule="evenodd" clip-rule="evenodd" d="M.737 11.034a.667.667 0 01.894-.298L8 13.921l6.368-3.185a.667.667 0 11.597 1.193l-6.667 3.333a.667.667 0 01-.596 0L1.035 11.93a.667.667 0 01-.298-.895z"/></svg><svg viewBox="0 0 16 16" id="like" xmlns="http://www.w3.org/2000/svg"><path fill-rule="evenodd" clip-rule="evenodd" d="M9.455 2.167c-.093 0-.18.05-.227.13l-.004.007-3.057 4.957v6.573h5.724a.26.26 0 00.255-.205l.003-.01 1.7-6.64a.262.262 0 00-.258-.312h-2.59c-.435 0-.874-.145-1.194-.457a1.406 1.406 0 01-.392-1.304l.48-2.426a.262.262 0 00-.258-.313h-.182zM4.833 13.834V7.739H2.471a.262.262 0 00-.262.26l-.042 5.571a.262.262 0 00.262.264h2.405zm.295-7.429l2.954-4.788A1.595 1.595 0 019.455.834h.182c1.005 0 1.76.918 1.565 1.904l-.479 2.426a.139.139 0 00-.002.067.057.057 0 00.017.025c.028.027.111.078.262.078h2.591c1.021 0 1.78.945 1.558 1.941l-.003.01-1.7 6.645a1.595 1.595 0 01-1.555 1.237H2.429A1.595 1.595 0 01.834 13.56l.042-5.571a1.595 1.595 0 011.595-1.584h2.657z"/></svg><svg viewBox="0 0 20 20" id="list" xmlns="http://www.w3.org/2000/svg"><path fill-rule="evenodd" clip-rule="evenodd" d="M.833 2.916c0-1.15.933-2.083 2.084-2.083h14.166c1.15 0 2.084.933 2.084 2.083v4.167c0 1.15-.933 2.083-2.084 2.083H2.917A2.083 2.083 0 01.833 7.083V2.916zM2.917 2.5a.417.417 0 00-.417.416v4.167c0 .23.187.417.417.417h14.166c.23 0 .417-.187.417-.417V2.916a.417.417 0 00-.417-.416H2.917zM.833 12.916c0-1.15.933-2.083 2.084-2.083h14.166c1.15 0 2.084.933 2.084 2.083v4.167c0 1.15-.933 2.083-2.084 2.083H2.917a2.083 2.083 0 01-2.084-2.083v-4.167zm2.084-.416a.417.417 0 00-.417.416v4.167c0 .23.187.417.417.417h14.166c.23 0 .417-.187.417-.417v-4.167a.417.417 0 00-.417-.416H2.917z"/></svg><svg viewBox="0 0 16 16" id="mic" xmlns="http://www.w3.org/2000/svg"><path fill-rule="evenodd" clip-rule="evenodd" d="M4.133 4.267a3.867 3.867 0 017.734 0v3.2a3.867 3.867 0 01-7.734 0v-3.2zM8 1.734a2.533 2.533 0 00-2.533 2.533v3.2a2.533 2.533 0 105.066 0v-3.2c0-1.4-1.134-2.533-2.533-2.533z"/><path fill-rule="evenodd" clip-rule="evenodd" d="M2.667 5.734c.368 0 .666.298.666.666v1.067a4.667 4.667 0 109.334 0V6.4A.667.667 0 1114 6.4v1.067a6 6 0 11-12 0V6.4c0-.368.298-.666.667-.666z"/><path fill-rule="evenodd" clip-rule="evenodd" d="M8 12.667c.368 0 .667.299.667.667v.933h1.466a.667.667 0 110 1.333H5.867a.667.667 0 010-1.333h1.466v-.933c0-.368.299-.667.667-.667z"/></svg><svg viewBox="0 0 16 16" id="play" xmlns="http://www.w3.org/2000/svg"><path fill-rule="evenodd" clip-rule="evenodd" d="M10.712 6.941a1.333 1.333 0 010 2.119l-3.054 2.333c-.877.67-2.143.045-2.143-1.059V5.667c0-1.105 1.266-1.73 2.143-1.06l3.054 2.334zm-.81 1.06L6.849 5.666v4.667L9.902 8z"/><path fill-rule="evenodd" clip-rule="evenodd" d="M8 2a6 6 0 100 12A6 6 0 008 2zM.667 8a7.333 7.333 0 1114.666 0A7.333 7.333 0 01.667 8z"/></svg><svg viewBox="0 0 16 16" id="star" xmlns="http://www.w3.org/2000/svg"><path fill-rule="evenodd" clip-rule="evenodd" d="M6.78 1.467C7.241.4 8.756.4 9.22 1.467l1.401 3.231 3.506.334c1.16.11 1.627 1.551.755 2.322l-2.64 2.33.765 3.438c.253 1.136-.972 2.027-1.974 1.435L8 12.767l-3.033 1.79c-1.002.592-2.228-.299-1.975-1.435l.766-3.437-2.64-2.331c-.873-.77-.405-2.211.754-2.322l3.506-.334 1.401-3.23zm2.62 3.76L8 1.997l-1.401 3.23a1.33 1.33 0 01-1.095.795L2 6.356l2.64 2.331c.363.321.523.814.418 1.287L4.29 13.41l3.033-1.79a1.33 1.33 0 011.352 0l3.033 1.79-.766-3.437a1.33 1.33 0 01.418-1.287L14 6.356l-3.506-.335A1.33 1.33 0 019.4 5.226z"/></svg><svg viewBox="0 0 24 24" id="tg" xmlns="http://www.w3.org/2000/svg"><path d="M9.633 15.181l-.364 5.584c.52 0 .746-.244 1.016-.537l2.441-2.545 5.059 4.041c.927.564 1.581.267 1.831-.93l3.32-16.973h.001c.295-1.497-.495-2.082-1.4-1.715L2.022 10.257c-1.332.564-1.311 1.374-.226 1.741l4.99 1.693 11.59-7.91c.545-.395 1.04-.177.633.217l-9.375 9.183z" opacity=".6"/></svg><svg viewBox="0 0 24 24" id="tw" xmlns="http://www.w3.org/2000/svg"><path d="M22.5 5.772a8.902 8.902 0 01-2.474.65 4.18 4.18 0 001.894-2.28 8.922 8.922 0 01-2.737 1 4.387 4.387 0 00-3.145-1.302c-2.379 0-4.308 1.847-4.308 4.124 0 .323.038.638.112.94-3.58-.173-6.754-1.815-8.879-4.31a3.962 3.962 0 00-.583 2.073c0 1.431.762 2.694 1.916 3.433a4.455 4.455 0 01-1.95-.518v.052c0 1.997 1.485 3.665 3.454 4.044-.36.093-.741.145-1.135.145a4.31 4.31 0 01-.81-.077c.548 1.64 2.138 2.832 4.023 2.865a8.89 8.89 0 01-5.35 1.763c-.348 0-.69-.02-1.028-.057a12.572 12.572 0 006.603 1.856c7.925 0 12.257-6.285 12.257-11.736l-.015-.534a8.412 8.412 0 002.155-2.13z"/></svg><svg viewBox="0 0 24 24" id="yt" xmlns="http://www.w3.org/2000/svg"><path fill-rule="evenodd" clip-rule="evenodd" d="M21.39 4.114a3.007 3.007 0 012.116 2.115c.514 1.878.494 5.792.494 5.792s0 3.895-.494 5.773a3.007 3.007 0 01-2.116 2.115c-1.878.495-9.39.495-9.39.495s-7.493 0-9.39-.514a3.007 3.007 0 01-2.116-2.116C0 15.916 0 12.001 0 12.001S0 8.107.494 6.23A3.068 3.068 0 012.61 4.094C4.488 3.6 12 3.6 12 3.6s7.513 0 9.391.514zm-5.535 7.888L9.608 15.6V8.404l6.247 3.598z" opacity=".6"/></svg></svg>